# xmcd
#
# Track frame offsets:
#	150
#	15775
#	29402
#	42132
#	55767
#	66440
#	81397
#	98187
#	107512
#	122995
#
# Disc length: 1828 seconds
#
# Revision: 3
# Processed by: cddbd v1.5.2PL0 Copyright (c) Steve Scherf et al.
# Submitted via: EasyCDDAExtractor 16.0.9.1
#
DISCID=7b07220a
DTITLE=Rocio Durcal - Canta A Juan Gabriel - Volumen 2
DYEAR=1978
DGENRE=Latin
TTITLE0=La Muerte Del Palomo
TTITLE1=Lagrimas Y Lluvia
TTITLE2=Ya No Insistas Corazon
TTITLE3=Nunca Es Tarde
TTITLE4=Tu Abandono
TTITLE5=Se Me Olvido Otra Vez
TTITLE6=Ayer Murio
TTITLE7=Ya No Vuelvo A Molestarte
TTITLE8=Siempre Estoy Pensando En Ti
TTITLE9=Me Gustas Mucho
EXTD=
EXTT0=
EXTT1=
EXTT2=
EXTT3=
EXTT4=
EXTT5=
EXTT6=
EXTT7=
EXTT8=
EXTT9=
PLAYORDER=
